<?xml version="1.0" encoding="UTF-8" standalone="no"?>
<!-- Created with Inkscape (http://www.inkscape.org/) -->

<svg xmlns:dc="http://purl.org/dc/elements/1.1/" xmlns:cc="http://creativecommons.org/ns#" xmlns:rdf="http://www.w3.org/1999/02/22-rdf-syntax-ns#" xmlns:svg="http://www.w3.org/2000/svg" xmlns="http://www.w3.org/2000/svg" version="1.1" width="290" height="300" id="svg3913">
  <defs id="defs3915" />
  <metadata id="metadata3918">
    <rdf:RDF>
      <cc:Work rdf:about="">
        <dc:format>image/svg+xml</dc:format>
        <dc:type rdf:resource="http://purl.org/dc/dcmitype/StillImage" />
        <dc:title></dc:title>
      </cc:Work>
    </rdf:RDF>
  </metadata>
  <g transform="translate(0,-752.4)" id="layer1">
    <path d="m 136.83672,772.26774 c -8.67946,10.48868 -11.35221,21.72716 -13.4619,27.37514 -8.24492,2.27476 -16.78576,4.97675 -23.30769,10.55578 -3.953444,2.01594 -6.826518,5.75505 -10.383635,7.99612 -2.367777,5.00822 -9.881064,1.37565 -11.441889,6.98388 -0.464181,5.12343 -6.854615,5.57256 -9.531677,9.27613 -6.959304,8.54432 -14.172582,17.36322 -18.42962,27.58549 -1.595776,3.41124 -0.423375,7.87589 -4.813288,9.44294 -3.627663,4.0798 -5.997681,9.44427 -7.490088,14.6784 -0.397379,4.26664 0.928663,8.28291 1.565019,12.3547 0.150576,6.65668 -4.782768,11.77368 -6.477214,17.72354 -0.321644,2.66224 4.167402,4.09943 0.566849,5.89631 -2.12872,2.52248 0.620611,6.43327 2.451917,7.1845 -9.708029,3.60467 -22.758186,5.83196 -26.4731334,16.97935 -2.5914266,8.08316 6.0747294,14.39626 13.4856364,13.92358 3.8039,0.92165 7.965035,-2.19668 11.406951,-0.53367 3.997208,8.85004 8.297249,18.50676 16.669837,24.13399 2.184521,3.4029 4.317989,7.13147 7.659207,9.3582 1.971223,5.76002 -0.882288,11.83688 -4.57405,16.00598 -1.16961,6.6285 -1.473792,13.4856 -3.153358,19.956 0.815762,6.4468 8.641,6.1677 13.541575,6.2531 9.042496,0.6379 15.492596,-7.1512 17.612377,-15.2061 0.855961,-3.666 3.407011,-7.3017 7.763772,-5.4192 10.688592,1.6822 21.536272,4.4098 32.335922,2.5924 8.3998,-0.3872 19.32034,1.154 25.22633,-6.1017 0.63685,-2.4145 0.56691,-2.4638 2.24222,-0.7234 4.17925,2.5745 11.88876,-0.7685 10.51551,-6.2642 2.60794,0.2673 5.89819,-1.1831 7.72682,-1.2244 0.73566,4.8244 6.76413,4.2304 9.42434,1.429 2.51688,-3.0557 5.44848,-5.72655 9.70315,-5.38023 3.57203,-0.35118 6.4633,-3.47324 8.63887,-5.39059 5.64753,6.69032 8.63233,15.41982 14.1997,22.24182 8.3123,11.0163 0.97444,11.0518 11.81299,19.8456 -1.25024,10.6286 6.03818,10.9685 16.04138,6.9984 19.51568,-4.9714 -0.0129,-6.4292 14.04839,-2.7751 -7.18028,-23.5728 -18.35079,-41.62357 -29.09203,-63.81705 1.07847,-6.41438 7.44248,-10.39958 9.37701,-16.6496 6.14108,-10.56732 12.73711,-21.21905 17.62143,-32.21221 7.27735,-1.82115 17.2424,3.37965 22.72351,-3.86131 2.3385,-4.50109 0.85364,-10.02677 3.81462,-14.52313 -0.004,-8.00425 -10.69164,-9.38907 -15.78165,-5.56102 -2.27587,1.10388 -3.75993,0.0485 -2.336,-2.47806 2.76832,-11.33378 7.45603,-23.11259 4.21246,-34.94999 -0.57012,-8.90729 -0.81209,-18.53227 -5.91923,-26.05956 -0.37013,-12.57903 -10.41066,-22.72148 -20.65897,-28.54211 -4.04293,-2.55013 -8.4857,1.68818 -11.99823,-1.81697 -12.86554,-6.88179 -51.31397,-19.19923 -63.30431,-17.32837 0.32723,-3.09751 -7.62238,-12.66824 -4.61881,-22.78293 -17.66898,2.3066 -9.54298,6.02949 -19.14102,2.83055 z m 37.883,53.79203 c 6.76749,2.40293 14.29672,2.5634 21.14632,3.61083 3.16584,3.66894 8.09045,4.11027 12.34465,2.69426 5.03856,-0.0176 9.86681,2.24045 14.55733,3.31579 2.81876,7.02027 12.17908,8.69683 13.84254,16.48523 7.48403,16.76156 7.22622,37.9441 -2.87498,53.36583 -12.04927,0.21945 -24.57623,-2.83771 -36.37671,0.6075 -3.20653,0.35003 -8.34085,0.43782 -8.31593,-3.89031 -3.63053,-11.65421 -11.45172,-21.59875 -14.91275,-33.31658 -3.34143,-11.61722 -7.64946,-22.95014 -10.58208,-34.80515 1.11335,-4.91705 7.98097,-4.43399 10.68133,-8.2263 z m -62.91646,25.41311 c -9.71059,19.58592 -15.203347,40.79396 -21.199787,61.60068 -1.362068,2.59781 -1.369584,7.44947 -5.439218,6.23639 -4.465264,1.29637 -9.378762,1.2741 -13.849551,2.80945 -2.899052,-1.31118 -6.423391,1.70353 -8.552383,1.38713 -0.364447,-11.18553 1.362238,-22.64523 4.568993,-33.29674 3.460571,-5.8405 10.147458,-11.22552 8.516153,-18.68009 3.416273,-4.7326 5.377508,-11.11045 11.470417,-13.34056 3.395078,-2.80142 7.571557,1.1052 10.879582,-1.97937 4.473934,-4.28692 10.484364,-6.16864 15.803384,-9.37872 -0.73253,1.54728 -1.46506,3.09455 -2.19759,4.64183 z m 30.29965,25.44415 c 5.12837,7.97528 10.07326,16.29583 14.2696,24.87784 0.49025,2.12314 4.33974,6.47945 0.0595,5.98684 -4.56312,0.45943 -9.66032,0.43983 -13.57537,2.92221 -4.72813,-3.01374 -9.56308,2.39447 -14.58359,0.72313 -4.30837,1.07018 -3.91881,-1.65914 -2.28635,-4.57332 4.2172,-8.59505 8.7285,-17.00612 12.99831,-25.57721 0.98629,-0.86516 2.08659,-5.02631 3.11793,-4.35949 z m 81.45107,51.94176 c -3.12261,7.23406 -9.71073,12.48132 -12.46134,20.13669 -1.14882,4.33796 -1.50328,-2.94118 -2.75004,-3.85759 -2.15317,-4.90012 -5.06097,-9.60274 -6.69286,-14.77353 6.95038,-2.35746 14.84842,-1.24507 21.90424,-1.50557 z m -58.86236,5.11157 c 7.51601,1.33183 6.98674,11.08754 10.37336,16.37273 4.05649,8.96366 11.21738,18.02053 10.15149,28.29171 -6.76553,4.90203 -15.20085,7.0684 -23.03886,9.50923 -19.90769,4.12063 -41.47619,0.84563 -59.84753,-7.61059 -5.890506,-2.32062 -0.29895,-8.69395 0.29026,-12.91664 3.23128,-8.33201 5.67156,-17.3604 9.68414,-25.20926 6.00969,-3.69385 13.70446,-2.49871 20.30115,-4.62249 10.62403,-1.818 21.29747,-4.10589 32.08599,-3.81469 z m -84.142383,8.79765 c -1.6365,4.66517 -4.515761,8.83705 -6.213474,13.419 -1.938873,-2.40053 -5.937599,-6.05649 -4.726447,-9.18849 3.838608,-1.23077 8.101956,-1.6119 11.061233,-4.6294 z" id="path3948" style="fill:#000000;fill-opacity:1" />
  </g>
</svg>
