<?xml version="1.0" encoding="UTF-8" standalone="no"?>
<svg
   xmlns:dc="http://purl.org/dc/elements/1.1/"
   xmlns:cc="http://creativecommons.org/ns#"
   xmlns:rdf="http://www.w3.org/1999/02/22-rdf-syntax-ns#"
   xmlns:svg="http://www.w3.org/2000/svg"
   xmlns="http://www.w3.org/2000/svg"
   xmlns:sodipodi="http://sodipodi.sourceforge.net/DTD/sodipodi-0.dtd"
   xmlns:inkscape="http://www.inkscape.org/namespaces/inkscape"
   id="svg"
   version="1.1"
   width="400"
   height="400"
   viewBox="0, 0, 400,400"
   sodipodi:docname="harbour-multimodal.svg"
   inkscape:version="1.0.1 (3bc2e813f5, 2020-09-07)">
  <metadata
     id="metadata11">
    <rdf:RDF>
      <cc:Work
         rdf:about="">
        <dc:format>image/svg+xml</dc:format>
        <dc:type
           rdf:resource="http://purl.org/dc/dcmitype/StillImage" />
        <dc:title></dc:title>
      </cc:Work>
    </rdf:RDF>
  </metadata>
  <defs
     id="defs9" />
  <sodipodi:namedview
     pagecolor="#ffffff"
     bordercolor="#666666"
     borderopacity="1"
     objecttolerance="10"
     gridtolerance="10"
     guidetolerance="10"
     inkscape:pageopacity="0"
     inkscape:pageshadow="2"
     inkscape:window-width="3840"
     inkscape:window-height="2033"
     id="namedview7"
     showgrid="false"
     inkscape:zoom="2"
     inkscape:cx="218.30035"
     inkscape:cy="357.48381"
     inkscape:window-x="0"
     inkscape:window-y="0"
     inkscape:window-maximized="1"
     inkscape:current-layer="layer2" />
  <g
     inkscape:groupmode="layer"
     id="layer1"
     inkscape:label="BG1" />
  <g
     inkscape:groupmode="layer"
     id="layer2"
     inkscape:label="FG1">
    <path
       id="path0"
       d="m 184.20367,5.8523517 c -38.982,3.623 -71.107,15.9669993 -101.984003,39.1879993 -60.229,45.294 -88.7569995,119.556009 -74.5029995,193.935009 6.8549995,35.773 25.9299995,73.116 50.1999995,98.279 l 2.742,2.842 12.428,-12.597 c 6.835,-6.928 17.381,-17.651 23.436,-23.829 l 11.009003,-11.232 -2.938,-3.436 C 68.588667,246.89736 60.848667,193.73136 83.741667,145.78036 118.30867,73.377351 211.87267,49.676351 275.83467,97.119351 c 62.453,46.324009 71.366,130.553009 20.266,191.523009 l -3.156,3.766 9.046,9.314 c 15.737,16.2 37.39663,38.1299 37.68063,38.2289 0.629,0.219 11.47509,-11.8806 17.08109,-19.3046 21.86887,-25.94799 31.88738,-61.3012 34.98122,-74.2865 l 3.12817,-16.9221 c 0.85063,-5.66438 1.60571,-14.25516 1.94478,-25.47459 -0.0927,-8.63267 0.20041,-10.48988 -0.67834,-19.56916 l -1.84357,-14.66639 C 379.93565,80.553913 307.31367,14.248351 218.02567,6.3153517 c -6.705,-0.596 -29.096,-0.903 -33.822,-0.463 m 7.42,129.2360083 c -42.194,5.371 -68.58,47.656 -55.027,88.184 2.738,8.189 9.298,19.435 13.789,23.641 l 1.106,1.035 3.673,-3.842 c 2.02,-2.113 12.905,-13.346 24.188,-24.961 l 20.516,-21.119 6.77,6.842 c 3.723,3.763 14.866,15.066 24.762,25.118 l 17.994,18.276 0.795,-0.984 c 11.646,-14.405 16.888,-28.656 16.891,-45.922 0.009,-40.736 -34.936,-71.426 -75.457,-66.268"
       stroke="none"
       fill="#fb5b1c"
       fill-rule="evenodd"
       sodipodi:nodetypes="cccccccccscccccccccccccccccccccccccc"
       style="fill:#ff6700;fill-opacity:1" />
    <path
       id="path1"
       d="m 169.71558,251.27822 c -25.214,26.105 -40.492,41.765 -113.738998,116.583 l -5.241,5.354 5.298,5.518 5.298,5.518 9.281,-9.253 9.28,-9.252 120.509998,0.107 120.51,0.106 9.062,9.053 9.062,9.053 4.829,-5.679 c 2.655,-3.123 4.879,-5.832 4.942,-6.019 0.062,-0.187 -6.383,-6.908 -14.324,-14.936 -7.94,-8.027 -24.284,-24.612 -36.32,-36.856 -12.036,-12.243 -36.65,-37.194 -54.698,-55.446 l -32.816,-33.185 -4.89019,5.36303 -5.20814,5.74114 6.88033,6.54683 7.36,7.191 -8.943,-0.202 c -4.919,-0.111 -11.519,-0.205 -14.668,-0.208 l -5.725,-0.007 2.071,-1.982 c 1.139,-1.09 4.289,-4.097 7,-6.681 l 4.929,-4.698 -5.232,-5.479 c -2.878,-3.013 -5.348,-5.523 -5.489,-5.578 -0.141,-0.055 -8.699,8.642 -19.019,19.327 m 63.94,24.834 5.058,5.292 -36.982,0.207 c -20.341,0.114 -38.265,0.331 -39.831,0.481 -3.477,0.334 -3.489,0.209 -0.215,-2.414 1.422,-1.139 3.702,-2.97 5.067,-4.068 6.401,-5.15 5.776,-5.069 37.685,-4.91 l 24.159,0.12 5.059,5.292 m 27.728,28.588 8.277,8.283 h -69.654 -69.654 l 4.946,-5.212 c 7.45,-7.85 10.198,-9.895 14.264,-10.615 0.949,-0.168 17.567,-0.338 36.928,-0.378 19.362,-0.041 35.268,-0.138 35.347,-0.217 0.079,-0.08 7.147,-0.144 15.706,-0.144 h 15.562 l 8.278,8.283 m 27.959,29.025 c 5.195,5.229 12.973,12.496 17.435,16.29 l 1.543,1.313 -17.256,-0.19 c -44.138,-0.485 -107.064,-0.579 -150.787,-0.225 -26.367,0.213 -47.989998,0.337 -48.051998,0.275 -0.061,-0.062 1.707,-1.733 3.93,-3.715 2.223993,-1.981 7.632998,-7.134 12.021998,-11.452 l 7.978,-7.85 36.894,-0.089 c 20.291,-0.049 57.939,-0.128 83.661,-0.174 l 46.768,-0.085 5.864,5.902"
       stroke="none"
       fill="#fbfbfb"
       fill-rule="evenodd"
       sodipodi:nodetypes="cccccccccccccsccccccccccccccscccccccccccccccsccsccccccccccccccc" />
  </g>
</svg>
