<?xml version="1.0" encoding="UTF-8"?>
<svg xmlns:xlink="http://www.w3.org/1999/xlink" version="1.1" xmlns:inkscape="http://www.inkscape.org/namespaces/inkscape" height="266.667pt" width="266.667pt" viewBox="0 0 266.667 266.667" xmlns="http://www.w3.org/2000/svg">
 <defs/>
 <g id="Background" inkscape:label="Background" inkscape:groupmode="layer">
  <path d="M266.667 133.333 C266.667 59.84 206.827 0 133.333 0 C59.84 0 0 59.84 0 133.333 C0 206.827 59.84 266.667 133.333 266.667 C206.827 266.667 266.667 206.827 266.667 133.333 Z" transform="translate(0, 0)" style="fill:#ffed1a; fill-rule:evenodd;stroke:none;"/>
  <path d="M62.72 64.8533 C62.72 81.7067 51.4133 89.92 28.6933 89.92 L0 89.92 L0 0.96 L30.8267 0.96 C52.8 0.96 61.9733 10.56 61.9733 23.36 C61.9733 34.6667 56.64 40.4267 46.08 43.84 C57.1733 45.5467 62.72 53.0133 62.72 64.8533 M40.2133 63.1467 C40.2133 56.1067 37.5467 52.2667 30.08 52.2667 L22.8267 52.2667 L22.8267 73.7067 L29.5467 73.7067 C36.5867 73.7067 40.2133 69.8667 40.2133 63.1467 M39.04 27.7333 C39.04 20.48 34.4533 17.6 27.4133 17.6 L22.8267 17.6 L22.8267 37.6533 L27.4133 37.6533 C34.4533 37.5467 39.04 33.4933 39.04 27.7333 M143.467 57.3867 C143.467 78.6133 131.627 90.88 109.76 90.88 C86.6133 90.88 75.7333 78.8267 75.7333 60.6933 L75.7333 0.96 L99.84 0.96 L99.84 57.8133 C99.84 67.7333 103.253 72.32 110.187 72.32 C117.867 72.32 121.067 67.9467 121.067 56.2133 L121.067 0.96 L143.467 0.96 L143.467 57.3867 M215.573 61.9733 C215.573 79.36 202.987 90.88 181.867 90.88 C174.187 90.88 166.72 89.92 157.547 88 L158.72 68.48 C165.973 71.5733 171.947 72.32 178.24 72.32 C185.707 72.32 190.827 69.8667 190.827 64.64 C190.827 59.6267 188.16 56.64 174.933 52.0533 C162.133 47.68 155.84 38.8267 155.84 26.0267 C155.84 10.1333 168.64 0 187.947 0 C195.413 0 202.667 0.96 211.093 2.88 L210.133 20.2667 C204.587 17.6 197.547 15.8933 192 15.8933 C184 15.8933 180.373 19.3067 180.373 24.1067 C180.373 28.6933 183.253 31.7867 195.093 36.3733 C210.027 42.1333 215.573 49.92 215.573 61.9733 " transform="translate(29.44, 89.4933)" style="fill:#171615; fill-rule:evenodd;stroke:none;"/>
 </g>
</svg>
