<?xml version="1.0" encoding="UTF-8" standalone="no"?>
<svg
   xmlns:dc="http://purl.org/dc/elements/1.1/"
   xmlns:cc="http://creativecommons.org/ns#"
   xmlns:rdf="http://www.w3.org/1999/02/22-rdf-syntax-ns#"
   xmlns:svg="http://www.w3.org/2000/svg"
   xmlns="http://www.w3.org/2000/svg"
   xmlns:sodipodi="http://sodipodi.sourceforge.net/DTD/sodipodi-0.dtd"
   xmlns:inkscape="http://www.inkscape.org/namespaces/inkscape"
   width="500pt"
   version="1.1"
   height="404pt"
   viewBox="0 0 500 404"
   id="svg1610"
   sodipodi:docname="metrolink_tram.svg"
   inkscape:version="1.0.1 (3bc2e813f5, 2020-09-07)">
  <metadata
     id="metadata1614">
    <rdf:RDF>
      <cc:Work
         rdf:about="">
        <dc:format>image/svg+xml</dc:format>
        <dc:type
           rdf:resource="http://purl.org/dc/dcmitype/StillImage" />
        <dc:title></dc:title>
      </cc:Work>
    </rdf:RDF>
  </metadata>
  <sodipodi:namedview
     pagecolor="#ffffff"
     bordercolor="#666666"
     borderopacity="1"
     objecttolerance="10"
     gridtolerance="10"
     guidetolerance="10"
     inkscape:pageopacity="0"
     inkscape:pageshadow="2"
     inkscape:window-width="3840"
     inkscape:window-height="2033"
     id="namedview1612"
     showgrid="false"
     inkscape:zoom="1.3273515"
     inkscape:cx="333.33333"
     inkscape:cy="269.33333"
     inkscape:window-x="0"
     inkscape:window-y="0"
     inkscape:window-maximized="1"
     inkscape:current-layer="svg1610" />
  <defs
     id="defs1603" />
  <g
     id="g2256"
     transform="matrix(6.8330745,0,0,6.8330745,-672.09815,-218.76438)">
    <path
       fill="#ffdb4f"
       d="m 135.52148,59.451309 c -1.2,-1.2 -3.075,-1.2 -4.275,0 -1.2,1.2 -1.2,3.075 0,4.275 1.2,1.2 3.075,1.2 4.275,0 1.2,-1.2 1.2,-3.075 0,-4.275"
       id="path2"
       style="stroke-width:0.75" />
    <path
       fill="#ffdb4f"
       d="m 142.34648,65.601309 c -1.35,-1.35 -3.525,-1.35 -4.95,0 -1.35,1.35 -1.35,3.525 0,4.95 1.35,1.35 3.525,1.35 4.95,0 1.35,-1.35 1.35,-3.6 0,-4.95"
       id="path4"
       style="stroke-width:0.75" />
    <path
       fill="#ffdb4f"
       d="m 149.17148,71.751309 c -1.5,-1.5 -4.05,-1.5 -5.55,0 -1.5,1.575 -1.5,4.05 0,5.549999 1.575,1.575 4.05,1.575 5.55,0 1.575,-1.499999 1.575,-3.974999 0,-5.549999"
       id="path6"
       style="stroke-width:0.75" />
    <path
       fill="#ffdb4f"
       d="m 135.52148,85.401308 c -1.2,-1.2 -3.075,-1.2 -4.275,0 -1.2,1.2 -1.2,3.075 0,4.275 1.2,1.2 3.075,1.2 4.275,0 1.2,-1.2 1.2,-3.075 0,-4.275"
       id="path8"
       style="stroke-width:0.75" />
    <path
       fill="#ffdb4f"
       d="m 135.52148,72.426309 c -1.2,-1.2 -3.075,-1.2 -4.275,0 -1.2,1.2 -1.2,3.075 0,4.274999 1.2,1.2 3.075,1.2 4.275,0 1.2,-1.199999 1.2,-3.074999 0,-4.274999"
       id="path10"
       style="stroke-width:0.75" />
    <path
       fill="#ffdb4f"
       d="m 135.52148,46.47631 c -1.2,-1.2 -3.075,-1.2 -4.275,0 -1.2,1.199999 -1.2,3.074999 0,4.274999 1.2,1.2 3.075,1.2 4.275,0 1.2,-1.2 1.2,-3.075 0,-4.274999"
       id="path12"
       style="stroke-width:0.75" />
    <path
       fill="#ffdb4f"
       d="m 135.52148,33.50131 c -1.2,-1.2 -3.075,-1.2 -4.275,0 -1.2,1.2 -1.2,3.075 0,4.275 1.2,1.2 3.075,1.2 4.275,0 1.2,-1.2 1.2,-3.15 0,-4.275"
       id="path14"
       style="stroke-width:0.75" />
    <path
       fill="#ffdb4f"
       d="m 142.34648,39.65131 c -1.35,-1.35 -3.525,-1.35 -4.95,0 -1.35,1.35 -1.35,3.525 0,4.95 1.35,1.35 3.525,1.35 4.95,0 1.35,-1.425 1.35,-3.6 0,-4.95"
       id="path16"
       style="stroke-width:0.75" />
    <path
       fill="#ffdb4f"
       d="m 142.34648,52.626309 c -1.35,-1.35 -3.525,-1.35 -4.95,0 -1.35,1.35 -1.35,3.525 0,4.95 1.35,1.35 3.525,1.35 4.95,0 1.35,-1.35 1.35,-3.6 0,-4.95"
       id="path18"
       style="stroke-width:0.75" />
    <path
       fill="#ffdb4f"
       d="m 142.34648,78.576308 c -1.35,-1.35 -3.525,-1.35 -4.95,0 -1.35,1.35 -1.35,3.525 0,4.95 1.35,1.35 3.525,1.35 4.95,0 1.35,-1.35 1.35,-3.6 0,-4.95"
       id="path20"
       style="stroke-width:0.75" />
    <path
       fill="#ffdb4f"
       d="m 149.17148,58.776309 c -1.5,-1.575 -4.05,-1.575 -5.55,0 -1.5,1.5 -1.5,4.05 0,5.55 1.575,1.5 4.05,1.5 5.55,0 1.575,-1.5 1.575,-3.975 0,-5.55"
       id="path22"
       style="stroke-width:0.75" />
    <path
       fill="#ffdb4f"
       d="m 149.17148,45.80131 c -1.5,-1.5 -4.05,-1.5 -5.55,0 -1.5,1.574999 -1.5,4.049999 0,5.549999 1.575,1.575 4.05,1.575 5.55,0 1.575,-1.5 1.575,-3.975 0,-5.549999"
       id="path24"
       style="stroke-width:0.75" />
    <path
       fill="#ffdb4f"
       d="m 155.84648,52.176309 c -1.65,-1.65 -4.275,-1.65 -5.925,0 -1.65,1.65 -1.65,4.275 0,5.925 1.65,1.65 4.275,1.65 5.925,0 1.65,-1.65 1.65,-4.35 0,-5.925"
       id="path26"
       style="stroke-width:0.75" />
    <path
       fill="#ffdb4f"
       d="m 155.84648,65.151309 c -1.65,-1.65 -4.275,-1.65 -5.925,0 -1.65,1.65 -1.65,4.275 0,5.925 1.65,1.65 4.275,1.65 5.925,0 1.65,-1.65 1.65,-4.35 0,-5.925"
       id="path28"
       style="stroke-width:0.75" />
    <path
       fill="#ffdb4f"
       d="m 162.52148,58.476309 c -1.725,-1.725 -4.5,-1.725 -6.225,0 -1.725,1.725 -1.725,4.5 0,6.225 1.725,1.725 4.5,1.725 6.225,0 1.725,-1.725 1.725,-4.5 0,-6.225"
       id="path30"
       style="stroke-width:0.75" />
    <path
       fill="#ffdb4f"
       d="m 121.87148,60.126309 c -0.825,-0.825 -2.175,-0.825 -2.925,0 -0.825,0.825 -0.825,2.1 0,2.925 0.825,0.825 2.175,0.825 2.925,0 0.825,-0.825 0.825,-2.1 0,-2.925"
       id="path32"
       style="stroke-width:0.75" />
    <path
       fill="#ffdb4f"
       d="m 107.39648,60.426309 c 0.675,0 1.125,0.525 1.125,1.125 0,0.675 -0.525,1.125 -1.125,1.125 -0.675,0 -1.125,-0.525 -1.125,-1.125 0,-0.6 0.525,-1.125 1.125,-1.125"
       id="path34"
       style="stroke-width:0.75" />
    <path
       fill="#ffdb4f"
       d="m 115.04648,53.976309 c -0.6,-0.6 -1.65,-0.6 -2.325,0 -0.6,0.6 -0.6,1.65 0,2.325 0.6,0.6 1.65,0.6 2.325,0 0.675,-0.675 0.675,-1.725 0,-2.325"
       id="path36"
       style="stroke-width:0.75" />
    <path
       fill="#ffdb4f"
       d="m 115.04648,66.951309 c -0.6,-0.6 -1.65,-0.6 -2.325,0 -0.6,0.6 -0.6,1.65 0,2.325 0.6,0.6 1.65,0.6 2.325,0 0.675,-0.675 0.675,-1.725 0,-2.325"
       id="path38"
       style="stroke-width:0.75" />
    <path
       fill="#ffdb4f"
       d="m 121.87148,73.101309 c -0.825,-0.825 -2.175,-0.825 -2.925,0 -0.825,0.825 -0.825,2.175 0,2.925 0.825,0.824999 2.175,0.824999 2.925,0 0.825,-0.825 0.825,-2.1 0,-2.925"
       id="path40"
       style="stroke-width:0.75" />
    <path
       fill="#ffdb4f"
       d="m 121.87148,47.15131 c -0.825,-0.825 -2.175,-0.825 -2.925,0 -0.825,0.824999 -0.825,2.099999 0,2.924999 0.825,0.825 2.175,0.825 2.925,0 0.825,-0.825 0.825,-2.1 0,-2.924999"
       id="path42"
       style="stroke-width:0.75" />
    <path
       fill="#ffdb4f"
       d="m 128.69648,40.32631 c -0.975,-0.975 -2.625,-0.975 -3.6,0 -0.975,0.975 -0.975,2.625 0,3.6 0.975,0.975 2.625,0.975 3.6,0 0.975,-0.975 1.05,-2.625 0,-3.6"
       id="path44"
       style="stroke-width:0.75" />
    <path
       fill="#ffdb4f"
       d="m 128.69648,53.301309 c -0.975,-0.975 -2.625,-0.975 -3.6,0 -0.975,0.975 -0.975,2.625 0,3.6 0.975,0.975 2.625,0.975 3.6,0 1.05,-0.975 1.05,-2.625 0,-3.6"
       id="path46"
       style="stroke-width:0.75" />
    <path
       fill="#ffdb4f"
       d="m 128.69648,66.276309 c -0.975,-0.975 -2.625,-0.975 -3.6,0 -0.975,0.975 -0.975,2.625 0,3.6 0.975,0.975 2.625,0.975 3.6,0 1.05,-0.975 1.05,-2.625 0,-3.6"
       id="path48"
       style="stroke-width:0.75" />
    <path
       fill="#ffdb4f"
       d="m 128.69648,79.251308 c -0.975,-0.975 -2.625,-0.975 -3.6,0 -0.975,0.975 -0.975,2.625 0,3.6 0.975,0.975 2.625,0.975 3.6,0 1.05,-0.975 1.05,-2.625 0,-3.6"
       id="path50"
       style="stroke-width:0.75" />
  </g>
</svg>
