<?xml version="1.0" encoding="UTF-8" standalone="no"?>
<svg
   viewBox="0 0 283.465 283.465"
   version="1.1"
   height="283.465pt"
   width="283.465pt"
   id="svg18"
   sodipodi:docname="walk4.svg"
   inkscape:version="1.1.1 (3bf5ae0d25, 2021-09-20)"
   xmlns:inkscape="http://www.inkscape.org/namespaces/inkscape"
   xmlns:sodipodi="http://sodipodi.sourceforge.net/DTD/sodipodi-0.dtd"
   xmlns="http://www.w3.org/2000/svg"
   xmlns:svg="http://www.w3.org/2000/svg">
  <sodipodi:namedview
     id="namedview20"
     pagecolor="#ffffff"
     bordercolor="#666666"
     borderopacity="1.0"
     inkscape:pageshadow="2"
     inkscape:pageopacity="0.0"
     inkscape:pagecheckerboard="0"
     inkscape:document-units="pt"
     showgrid="false"
     inkscape:zoom="4.7146273"
     inkscape:cx="225.15035"
     inkscape:cy="125.67271"
     inkscape:window-width="3840"
     inkscape:window-height="2033"
     inkscape:window-x="0"
     inkscape:window-y="0"
     inkscape:window-maximized="1"
     inkscape:current-layer="Background" />
  <defs
     id="defs4">
    <path
       d="M4.43844 6.58203 C4.6501 6.65359 4.85599 6.80656 5.05609 7.04094 C5.2563 7.27531 5.45734 7.5976 5.65922 8.00781 L6.66016 10 L5.60062 10 L4.66797 8.12984 C4.42714 7.64161 4.19359 7.31776 3.96734 7.15828 C3.74109 6.9987 3.43266 6.91891 3.04203 6.91891 L1.96781 6.91891 L1.96781 10 L0.981406 10 L0.981406 2.71 L3.20797 2.71 C4.0413 2.71 4.66302 2.88417 5.07313 3.2325 C5.48333 3.58073 5.68844 4.10641 5.68844 4.80953 C5.68844 5.26849 5.58182 5.64938 5.36859 5.95219 C5.15547 6.2549 4.84542 6.46484 4.43844 6.58203 L4.43844 6.58203 Z M1.96781 3.52047 L1.96781 6.10844 L3.20797 6.10844 C3.68328 6.10844 4.04219 5.99859 4.28469 5.77891 C4.52719 5.55911 4.64844 5.23599 4.64844 4.80953 C4.64844 4.38307 4.52719 4.06161 4.28469 3.84516 C4.04219 3.6287 3.68328 3.52047 3.20797 3.52047 L1.96781 3.52047 Z"
       id="GlDejaVuSans53" />
    <path
       d="M1.96781 6.51859 L1.96781 9.18938 L3.54984 9.18938 C4.08047 9.18938 4.47354 9.07953 4.72906 8.85984 C4.98458 8.64016 5.11234 8.30406 5.11234 7.85156 C5.11234 7.39583 4.98458 7.05974 4.72906 6.84328 C4.47354 6.62682 4.08047 6.51859 3.54984 6.51859 L1.96781 6.51859 L1.96781 6.51859 Z M1.96781 3.52047 L1.96781 5.71781 L3.42781 5.71781 C3.90958 5.71781 4.26844 5.6275 4.50438 5.44687 C4.74042 5.26615 4.85844 4.99021 4.85844 4.61906 C4.85844 4.25125 4.74042 3.9762 4.50438 3.79391 C4.26844 3.61161 3.90958 3.52047 3.42781 3.52047 L1.96781 3.52047 L1.96781 3.52047 Z M0.981406 2.71 L3.50094 2.71 C4.25292 2.71 4.83234 2.86625 5.23922 3.17875 C5.6462 3.49125 5.84969 3.93557 5.84969 4.51172 C5.84969 4.95766 5.74552 5.3125 5.53719 5.57625 C5.32885 5.8399 5.02286 6.00427 4.61922 6.06937 C5.10422 6.17354 5.48099 6.39083 5.74953 6.72125 C6.01807 7.05156 6.15234 7.46411 6.15234 7.95891 C6.15234 8.60995 5.93099 9.11292 5.48828 9.46781 C5.04557 9.8226 4.41568 10 3.59859 10 L0.981406 10 L0.981406 2.71 Z"
       id="GlDejaVuSans37" />
  </defs>
  <g
     id="Background"
     inkscape:groupmode="layer"
     inkscape:label="Background">
    <circle
       style="fill:#dadada;fill-opacity:1;stroke:none;stroke-width:5.37559;stroke-linecap:square;stroke-opacity:1"
       id="path1275"
       cx="141.71025"
       cy="141.64005"
       r="141" />
    <rect
       style="fill:#000000;stroke:#000000;stroke-width:4.53543;stroke-linecap:square"
       id="rect3163"
       width="33.035885"
       height="0.32566416"
       x="-49.540257"
       y="237.81325"
       transform="rotate(-70.469526)" />
  </g>
  <g
     id="RB"
     inkscape:groupmode="layer"
     inkscape:label="RB">
    <path
       d="m 87.885847,236.68925 c 1.54747,-1.072 0.57517,-5.85986 -3.27626,-16.13312 -1.0431,-2.78236 -2.04038,-5.67796 -2.21615,-6.43465 l -0.31961,-1.37582 1.87053,-1.79057 c 2.26871,-2.17171 6.05232,-5.22501 14.89706,-12.02166 10.313533,-7.92533 20.154973,-15.9432 25.414223,-20.70508 2.55661,-2.31484 3.54427,-2.90964 4.2258,-2.5449 0.92751,0.49639 7.57326,7.39296 17.9351,18.612 19.3644,20.96633 30.81256,33.06508 32.51751,34.36551 l 0.87791,0.66962 0.93396,-0.62205 c 5.03494,-3.35337 24.76335,-21.19462 29.80266,-26.9518 1.87971,-2.14748 3.38143,-4.7128 3.38143,-5.77637 0,-0.32558 -0.24191,-0.83386 -0.53758,-1.12952 -0.47343,-0.47345 -0.72235,-0.51858 -2.08677,-0.37832 -1.80911,0.18597 -6.57004,1.41432 -11.88415,3.06619 -4.8063,1.49402 -5.78048,1.61461 -7.36857,0.91212 -1.79918,-0.79586 -3.57324,-2.76447 -14.09957,-15.64574 -16.8926,-20.67182 -17.39411,-21.36795 -17.39411,-24.1435 0,-1.9424 0.46726,-2.7988 1.90746,-3.496 1.55838,-0.75439 2.62738,-0.60672 6.26502,0.86548 1.60684,0.65031 3.53904,1.3119 4.29379,1.47021 1.23193,0.2584 1.53182,0.22819 2.93182,-0.29538 0.85776,-0.32078 4.03283,-2.06007 7.05577,-3.86509 3.02291,-1.80502 8.68329,-5.1065 12.5786,-7.33661 10.50195,-6.01252 15.83552,-9.97323 16.19857,-11.69493 0.35829,-1.69924 -1.02829,-2.62257 3.8782,-6.66661 3.11668,-2.56884 6.0698,-8.56329 5.47746,-12.57701 -0.37606,-2.54821 -0.43163,-3.00822 -2.15204,-3.88799 -1.20582,-0.61663 -5.2163,-1.64154 -6.5537,-1.02714 -5.54355,3.59675 -4.68822,5.34153 -5.94801,6.28058 -4.98112,3.71294 -1.6965,0.27452 -8.13079,2.96567 -1.51411,0.63328 -9.68765,4.30893 -12.88737,5.66454 -3.19971,1.35561 -6.32987,2.65036 -6.9559,2.8772 -2.06811,0.7494 -5.60876,1.68493 -6.37687,1.68493 -2.04177,0 -4.16795,-1.9838 -8.45443,-7.88831 -2.95596,-4.07172 -4.16315,-5.57731 -7.72326,-9.63235 -2.20904,-2.51614 -4.00435,-5.13647 -4.00435,-5.84451 0,-0.85555 1.00064,-2.12539 2.41416,-3.06363 1.32225,-0.87767 2.28394,-1.31629 5.00789,-2.28409 1.68606,-0.59904 4.63529,-2.618785 6.08128,-4.164678 0.66147,-0.707162 1.50445,-1.936602 1.87329,-2.732086 0.96589,-2.083116 0.94805,-5.388344 -0.0573,-10.627323 l -0.74251,-3.869205 2.60927,-2.618185 2.60928,-2.618187 -0.855,-0.783181 c -1.03086,-0.944273 -3.6289,-2.303854 -4.40248,-2.303854 -1.19606,0 -2.57171,-1.468768 -4.6197,-4.932368 -2.67469,-4.523497 -3.00753,-5.23046 -2.58016,-5.480035 6.75236,-3.943087 13.39138,-8.761292 13.60572,-9.874201 0.12442,-0.646141 -0.93159,-1.430949 -2.17669,-1.617665 -2.71321,-0.406868 -6.87575,0.24633 -13.36154,2.096722 l -4.0798,1.16397 -1.72554,-1.870893 c -4.08527,-4.429405 -5.81488,-5.791493 -7.35424,-5.791493 -0.38052,0 -5.30796,2.1492 -10.94983,4.776 -5.64187,2.626797 -14.18486,6.575195 -18.98443,8.774215 -4.79957,2.199019 -8.77165,4.031383 -8.82684,4.071925 -0.0777,0.05708 0.5957,8.685295 0.81432,10.433597 0.0292,0.233547 -2.69613,1.733055 -7.815253,4.300013 -10.04217,5.035637 -12.33785,6.662066 -11.25131,7.971276 0.88269,1.063576 8.37587,1.138833 14.897393,0.149623 3.85628,-0.584933 6.21021,-0.646004 7.12285,-0.184792 1.86876,0.944417 11.92308,15.838735 12.31273,18.239935 0.15372,0.94713 -1.0793,3.82779 -6.18162,14.44196 -4.16851,8.67164 -6.40231,13.93457 -8.48132,19.98241 -0.90864,2.64324 -2.01607,5.75144 -2.46095,6.9071 -2.11993,5.50694 -8.681603,13.28994 -28.830123,34.19635 -18.17484,18.85846 -21.54817,22.53045 -22.4234,24.40852 -0.6877,1.47571 -0.76207,3.11122 -0.19571,4.30475 2.27878,4.80217 24.10095,25.23041 30.31672,28.38017 1.3111,0.66439 4.04095,1.04763 4.61748,0.64825 z"
       id="path1318"
       style="fill:#000000;fill-opacity:1;stroke-width:0.252942"
       sodipodi:nodetypes="csscsssssscssssssssssssssssssscssssssssssssscccssscssscsssssscssssssssssscc" />
  </g>
</svg>
